<mxfile host="Electron" modified="2023-09-01T06:43:08.977Z" agent="Mozilla/5.0 (Windows NT 10.0; Win64; x64) AppleWebKit/537.36 (KHTML, like Gecko) draw.io/21.2.1 Chrome/112.0.5615.87 Electron/24.1.2 Safari/537.36" etag="AeLn-pC8zeqvPKXUCR0G" version="21.2.1" type="device">
  <diagram name="Página-1" id="W83xtEJMmamZggr5R-n2">
    <mxGraphModel dx="1493" dy="709" grid="1" gridSize="10" guides="1" tooltips="1" connect="1" arrows="1" fold="1" page="1" pageScale="1" pageWidth="827" pageHeight="1169" math="0" shadow="0">
      <root>
        <mxCell id="0" />
        <mxCell id="1" parent="0" />
        <mxCell id="Mctxi2W_aiQkZ-FzXaD9-49" value="&lt;p style=&quot;margin:0px;margin-top:4px;text-align:center;&quot;&gt;&lt;i&gt;&amp;lt;&amp;lt;abstract class&amp;gt;&amp;gt;&lt;/i&gt;&lt;br&gt;&lt;b&gt;Operations&lt;/b&gt;&lt;/p&gt;&lt;hr size=&quot;1&quot;&gt;&lt;p style=&quot;margin:0px;margin-left:4px;&quot;&gt;+ field1: Type&lt;br&gt;&lt;/p&gt;&lt;hr size=&quot;1&quot;&gt;&lt;p style=&quot;margin:0px;margin-left:4px;&quot;&gt;+ method1(Type): Type&lt;br&gt;&lt;/p&gt;" style="verticalAlign=top;align=left;overflow=fill;fontSize=12;fontFamily=Helvetica;html=1;whiteSpace=wrap;" parent="1" vertex="1">
          <mxGeometry x="650" y="470" width="190" height="140" as="geometry" />
        </mxCell>
        <mxCell id="Mctxi2W_aiQkZ-FzXaD9-50" value="&lt;p style=&quot;margin:0px;margin-top:4px;text-align:center;&quot;&gt;&lt;i&gt;&amp;lt;&amp;lt;class&amp;gt;&amp;gt;&lt;/i&gt;&lt;br&gt;&lt;b&gt;Handler&lt;/b&gt;&lt;/p&gt;&lt;hr size=&quot;1&quot;&gt;&lt;p style=&quot;margin:0px;margin-left:4px;&quot;&gt;+ field1: Type&lt;br&gt;&lt;/p&gt;&lt;hr size=&quot;1&quot;&gt;&lt;p style=&quot;margin:0px;margin-left:4px;&quot;&gt;+ do_GET(): void&lt;br&gt;+ do_POST(): void&lt;/p&gt;&lt;p style=&quot;margin:0px;margin-left:4px;&quot;&gt;+ do_PUT(): void&lt;/p&gt;&lt;p style=&quot;margin:0px;margin-left:4px;&quot;&gt;+ do_DELETE(): void&lt;br&gt;&lt;/p&gt;&lt;p style=&quot;margin:0px;margin-left:4px;&quot;&gt;+ do_HEAD(): void&lt;/p&gt;" style="verticalAlign=top;align=left;overflow=fill;fontSize=12;fontFamily=Helvetica;html=1;whiteSpace=wrap;" parent="1" vertex="1">
          <mxGeometry x="338.13" y="462.96999999999997" width="214.25" height="154.06" as="geometry" />
        </mxCell>
        <mxCell id="Mctxi2W_aiQkZ-FzXaD9-51" value="&lt;p style=&quot;margin:0px;margin-top:4px;text-align:center;&quot;&gt;&lt;i&gt;&amp;lt;&amp;lt;class&amp;gt;&amp;gt;&lt;/i&gt;&lt;br&gt;&lt;b&gt;Server&lt;/b&gt;&lt;/p&gt;&lt;hr size=&quot;1&quot;&gt;&lt;p style=&quot;margin:0px;margin-left:4px;&quot;&gt;+ instance: ThreadingHTTPServer&lt;/p&gt;&lt;hr size=&quot;1&quot;&gt;&lt;p style=&quot;margin:0px;margin-left:4px;&quot;&gt;+ run(): void&lt;/p&gt;&lt;p style=&quot;margin:0px;margin-left:4px;&quot;&gt;+ pause(): void&lt;/p&gt;&lt;p style=&quot;margin:0px;margin-left:4px;&quot;&gt;+ continue(): void&lt;/p&gt;&lt;p style=&quot;margin:0px;margin-left:4px;&quot;&gt;+ finish(): void&lt;/p&gt;" style="verticalAlign=top;align=left;overflow=fill;fontSize=12;fontFamily=Helvetica;html=1;whiteSpace=wrap;" parent="1" vertex="1">
          <mxGeometry x="49.99" y="470" width="190" height="140.23" as="geometry" />
        </mxCell>
        <mxCell id="Mctxi2W_aiQkZ-FzXaD9-52" value="&lt;p style=&quot;margin:0px;margin-top:4px;text-align:center;&quot;&gt;&lt;i&gt;&amp;lt;&amp;lt;class&amp;gt;&amp;gt;&lt;/i&gt;&lt;br&gt;&lt;b&gt;ResourceOperations&lt;/b&gt;&lt;/p&gt;&lt;hr size=&quot;1&quot;&gt;&lt;p style=&quot;margin:0px;margin-left:4px;&quot;&gt;+ dirpath: str&lt;br&gt;&lt;/p&gt;&lt;hr size=&quot;1&quot;&gt;&lt;p style=&quot;margin:0px;margin-left:4px;&quot;&gt;+ resource_exists(str): bool&lt;/p&gt;&lt;p style=&quot;margin:0px;margin-left:4px;&quot;&gt;+ get_resource(str): str&lt;br&gt;&lt;/p&gt;" style="verticalAlign=top;align=left;overflow=fill;fontSize=12;fontFamily=Helvetica;html=1;whiteSpace=wrap;" parent="1" vertex="1">
          <mxGeometry x="449.5" y="700" width="190" height="140" as="geometry" />
        </mxCell>
        <mxCell id="Mctxi2W_aiQkZ-FzXaD9-53" value="&lt;p style=&quot;margin:0px;margin-top:4px;text-align:center;&quot;&gt;&lt;i&gt;&amp;lt;&amp;lt;class&amp;gt;&amp;gt;&lt;/i&gt;&lt;br&gt;&lt;b&gt;CredentialOperations&lt;/b&gt;&lt;/p&gt;&lt;hr size=&quot;1&quot;&gt;&lt;p style=&quot;margin:0px;margin-left:4px;&quot;&gt;+ field1: Type&lt;br&gt;&lt;/p&gt;&lt;hr size=&quot;1&quot;&gt;&lt;p style=&quot;margin:0px;margin-left:4px;&quot;&gt;+ method1(Type): Type&lt;br&gt;&lt;/p&gt;" style="verticalAlign=top;align=left;overflow=fill;fontSize=12;fontFamily=Helvetica;html=1;whiteSpace=wrap;" parent="1" vertex="1">
          <mxGeometry x="650.5" y="700" width="190" height="140" as="geometry" />
        </mxCell>
        <mxCell id="Mctxi2W_aiQkZ-FzXaD9-54" value="&lt;p style=&quot;margin:0px;margin-top:4px;text-align:center;&quot;&gt;&lt;i&gt;&amp;lt;&amp;lt;class&amp;gt;&amp;gt;&lt;/i&gt;&lt;br&gt;&lt;b&gt;RecommenderOperations&lt;/b&gt;&lt;/p&gt;&lt;hr size=&quot;1&quot;&gt;&lt;p style=&quot;margin:0px;margin-left:4px;&quot;&gt;+ field1: Type&lt;br&gt;&lt;/p&gt;&lt;hr size=&quot;1&quot;&gt;&lt;p style=&quot;margin:0px;margin-left:4px;&quot;&gt;+ method1(Type): Type&lt;br&gt;&lt;/p&gt;" style="verticalAlign=top;align=left;overflow=fill;fontSize=12;fontFamily=Helvetica;html=1;whiteSpace=wrap;" parent="1" vertex="1">
          <mxGeometry x="850.5" y="700" width="190" height="140" as="geometry" />
        </mxCell>
        <mxCell id="Mctxi2W_aiQkZ-FzXaD9-56" value="" style="endArrow=none;html=1;edgeStyle=orthogonalEdgeStyle;rounded=0;exitX=1;exitY=0.5;exitDx=0;exitDy=0;entryX=0;entryY=0.5;entryDx=0;entryDy=0;" parent="1" source="Mctxi2W_aiQkZ-FzXaD9-51" target="Mctxi2W_aiQkZ-FzXaD9-50" edge="1">
          <mxGeometry relative="1" as="geometry">
            <mxPoint x="433" y="305" as="sourcePoint" />
            <mxPoint x="523" y="305" as="targetPoint" />
          </mxGeometry>
        </mxCell>
        <mxCell id="Mctxi2W_aiQkZ-FzXaD9-57" value="" style="endArrow=block;endSize=16;endFill=0;html=1;rounded=0;entryX=0.25;entryY=1;entryDx=0;entryDy=0;exitX=0.75;exitY=0;exitDx=0;exitDy=0;" parent="1" source="Mctxi2W_aiQkZ-FzXaD9-52" target="Mctxi2W_aiQkZ-FzXaD9-49" edge="1">
          <mxGeometry width="160" relative="1" as="geometry">
            <mxPoint x="454" y="390" as="sourcePoint" />
            <mxPoint x="551" y="330" as="targetPoint" />
          </mxGeometry>
        </mxCell>
        <mxCell id="Mctxi2W_aiQkZ-FzXaD9-58" value="" style="endArrow=block;endSize=16;endFill=0;html=1;rounded=0;entryX=0.5;entryY=1;entryDx=0;entryDy=0;exitX=0.5;exitY=0;exitDx=0;exitDy=0;" parent="1" source="Mctxi2W_aiQkZ-FzXaD9-53" target="Mctxi2W_aiQkZ-FzXaD9-49" edge="1">
          <mxGeometry width="160" relative="1" as="geometry">
            <mxPoint x="664" y="720" as="sourcePoint" />
            <mxPoint x="768" y="620" as="targetPoint" />
          </mxGeometry>
        </mxCell>
        <mxCell id="Mctxi2W_aiQkZ-FzXaD9-59" value="" style="endArrow=block;endSize=16;endFill=0;html=1;rounded=0;entryX=0.75;entryY=1;entryDx=0;entryDy=0;exitX=0.25;exitY=0;exitDx=0;exitDy=0;" parent="1" source="Mctxi2W_aiQkZ-FzXaD9-54" target="Mctxi2W_aiQkZ-FzXaD9-49" edge="1">
          <mxGeometry width="160" relative="1" as="geometry">
            <mxPoint x="814" y="720" as="sourcePoint" />
            <mxPoint x="815" y="620" as="targetPoint" />
          </mxGeometry>
        </mxCell>
        <mxCell id="Mctxi2W_aiQkZ-FzXaD9-60" value="&lt;font style=&quot;font-size: 12px;&quot;&gt;&lt;b&gt;0..*&lt;/b&gt;&lt;/font&gt;" style="text;html=1;strokeColor=none;fillColor=none;align=center;verticalAlign=middle;whiteSpace=wrap;rounded=0;" parent="1" vertex="1">
          <mxGeometry x="290" y="540" width="60" height="30" as="geometry" />
        </mxCell>
        <mxCell id="Mctxi2W_aiQkZ-FzXaD9-65" value="«library class»&lt;br&gt;&lt;b&gt;BaseHTTPRequestHandler&lt;/b&gt;" style="html=1;whiteSpace=wrap;" parent="1" vertex="1">
          <mxGeometry x="360.01" y="350" width="170.5" height="50" as="geometry" />
        </mxCell>
        <mxCell id="Mctxi2W_aiQkZ-FzXaD9-68" value="" style="endArrow=block;endSize=16;endFill=0;html=1;rounded=0;entryX=0.5;entryY=1;entryDx=0;entryDy=0;exitX=0.5;exitY=0;exitDx=0;exitDy=0;" parent="1" source="Mctxi2W_aiQkZ-FzXaD9-50" target="Mctxi2W_aiQkZ-FzXaD9-65" edge="1">
          <mxGeometry width="160" relative="1" as="geometry">
            <mxPoint x="602" y="720" as="sourcePoint" />
            <mxPoint x="708" y="620" as="targetPoint" />
          </mxGeometry>
        </mxCell>
        <mxCell id="Mctxi2W_aiQkZ-FzXaD9-69" value="«library class»&lt;br&gt;&lt;b&gt;ThreadingHTTPServer&lt;/b&gt;" style="html=1;whiteSpace=wrap;" parent="1" vertex="1">
          <mxGeometry x="74.87" y="350" width="140.25" height="50" as="geometry" />
        </mxCell>
        <mxCell id="Mctxi2W_aiQkZ-FzXaD9-71" value="" style="endArrow=diamondThin;endFill=1;endSize=24;html=1;rounded=0;exitX=0.5;exitY=1;exitDx=0;exitDy=0;entryX=0.5;entryY=0;entryDx=0;entryDy=0;" parent="1" source="Mctxi2W_aiQkZ-FzXaD9-69" target="Mctxi2W_aiQkZ-FzXaD9-51" edge="1">
          <mxGeometry width="160" relative="1" as="geometry">
            <mxPoint x="660" y="550" as="sourcePoint" />
            <mxPoint x="270" y="430" as="targetPoint" />
          </mxGeometry>
        </mxCell>
        <mxCell id="Mctxi2W_aiQkZ-FzXaD9-72" value="" style="endArrow=diamondThin;endFill=0;endSize=24;html=1;rounded=0;entryX=1;entryY=0.5;entryDx=0;entryDy=0;exitX=0;exitY=0.5;exitDx=0;exitDy=0;" parent="1" source="Mctxi2W_aiQkZ-FzXaD9-49" target="Mctxi2W_aiQkZ-FzXaD9-50" edge="1">
          <mxGeometry width="160" relative="1" as="geometry">
            <mxPoint x="460" y="630" as="sourcePoint" />
            <mxPoint x="620" y="630" as="targetPoint" />
          </mxGeometry>
        </mxCell>
        <mxCell id="Mctxi2W_aiQkZ-FzXaD9-78" value="" style="endArrow=diamondThin;endFill=0;endSize=24;html=1;rounded=0;entryX=0.25;entryY=1;entryDx=0;entryDy=0;exitX=0.5;exitY=0;exitDx=0;exitDy=0;" parent="1" source="HZqyk_B0RYxZIagJzKKh-5" target="Mctxi2W_aiQkZ-FzXaD9-52" edge="1">
          <mxGeometry width="160" relative="1" as="geometry">
            <mxPoint x="540" y="900" as="sourcePoint" />
            <mxPoint x="510" y="920" as="targetPoint" />
          </mxGeometry>
        </mxCell>
        <mxCell id="Mctxi2W_aiQkZ-FzXaD9-79" value="&lt;p style=&quot;margin:0px;margin-top:4px;text-align:center;&quot;&gt;&lt;i&gt;&amp;lt;&amp;lt;class&amp;gt;&amp;gt;&lt;/i&gt;&lt;br&gt;&lt;b&gt;Database&lt;/b&gt;&lt;/p&gt;&lt;hr size=&quot;1&quot;&gt;&lt;p style=&quot;margin:0px;margin-left:4px;&quot;&gt;+ str_connection: str&lt;br&gt;&lt;/p&gt;&lt;hr size=&quot;1&quot;&gt;&lt;p style=&quot;border-color: var(--border-color); margin: 0px 0px 0px 4px;&quot;&gt;+ is_on(): bool&lt;/p&gt;&lt;p style=&quot;margin:0px;margin-left:4px;&quot;&gt;+ query(str): bool&lt;/p&gt;" style="verticalAlign=top;align=left;overflow=fill;fontSize=12;fontFamily=Helvetica;html=1;whiteSpace=wrap;" parent="1" vertex="1">
          <mxGeometry x="650" y="920" width="190" height="120" as="geometry" />
        </mxCell>
        <mxCell id="HZqyk_B0RYxZIagJzKKh-1" value="" style="endArrow=diamondThin;endFill=0;endSize=24;html=1;rounded=0;entryX=0.5;entryY=1;entryDx=0;entryDy=0;exitX=0.5;exitY=0;exitDx=0;exitDy=0;" edge="1" parent="1" source="Mctxi2W_aiQkZ-FzXaD9-79" target="Mctxi2W_aiQkZ-FzXaD9-53">
          <mxGeometry width="160" relative="1" as="geometry">
            <mxPoint x="770" y="900" as="sourcePoint" />
            <mxPoint x="770" y="850" as="targetPoint" />
          </mxGeometry>
        </mxCell>
        <mxCell id="HZqyk_B0RYxZIagJzKKh-2" value="" style="endArrow=diamondThin;endFill=0;endSize=24;html=1;rounded=0;entryX=0.25;entryY=1;entryDx=0;entryDy=0;exitX=0.75;exitY=0;exitDx=0;exitDy=0;" edge="1" parent="1" source="Mctxi2W_aiQkZ-FzXaD9-79" target="Mctxi2W_aiQkZ-FzXaD9-54">
          <mxGeometry width="160" relative="1" as="geometry">
            <mxPoint x="850" y="880" as="sourcePoint" />
            <mxPoint x="860" y="860" as="targetPoint" />
          </mxGeometry>
        </mxCell>
        <mxCell id="HZqyk_B0RYxZIagJzKKh-4" value="" style="endArrow=diamondThin;endFill=0;endSize=24;html=1;rounded=0;exitX=0.25;exitY=0;exitDx=0;exitDy=0;entryX=0.75;entryY=1;entryDx=0;entryDy=0;" edge="1" parent="1" source="Mctxi2W_aiQkZ-FzXaD9-79" target="Mctxi2W_aiQkZ-FzXaD9-52">
          <mxGeometry width="160" relative="1" as="geometry">
            <mxPoint x="585" y="990" as="sourcePoint" />
            <mxPoint x="570" y="880" as="targetPoint" />
          </mxGeometry>
        </mxCell>
        <mxCell id="HZqyk_B0RYxZIagJzKKh-5" value="&lt;p style=&quot;margin:0px;margin-top:4px;text-align:center;&quot;&gt;&lt;i&gt;&amp;lt;&amp;lt;class&amp;gt;&amp;gt;&lt;/i&gt;&lt;br&gt;&lt;b&gt;File&lt;/b&gt;&lt;/p&gt;&lt;hr size=&quot;1&quot;&gt;&lt;p style=&quot;margin:0px;margin-left:4px;&quot;&gt;+ dir_path: str&lt;br&gt;&lt;/p&gt;&lt;hr size=&quot;1&quot;&gt;&lt;p style=&quot;border-color: var(--border-color); margin: 0px 0px 0px 4px;&quot;&gt;+ file_exists(str): bool&lt;/p&gt;&lt;p style=&quot;margin:0px;margin-left:4px;&quot;&gt;+ read_file(str): bool&lt;/p&gt;&lt;p style=&quot;margin:0px;margin-left:4px;&quot;&gt;+ write_file(str): str&lt;br&gt;&lt;/p&gt;" style="verticalAlign=top;align=left;overflow=fill;fontSize=12;fontFamily=Helvetica;html=1;whiteSpace=wrap;" vertex="1" parent="1">
          <mxGeometry x="400" y="920" width="190" height="120" as="geometry" />
        </mxCell>
        <mxCell id="HZqyk_B0RYxZIagJzKKh-7" style="edgeStyle=orthogonalEdgeStyle;rounded=0;orthogonalLoop=1;jettySize=auto;html=1;exitX=0.5;exitY=1;exitDx=0;exitDy=0;" edge="1" parent="1" source="Mctxi2W_aiQkZ-FzXaD9-79" target="Mctxi2W_aiQkZ-FzXaD9-79">
          <mxGeometry relative="1" as="geometry" />
        </mxCell>
      </root>
    </mxGraphModel>
  </diagram>
</mxfile>
